<svg xmlns="http://www.w3.org/2000/svg" viewBox="0 0 1200 630" role="img" aria-label="Moniemind — Personal finance, Nigerian-coded">
  <defs>
    <linearGradient id="mm-og-bg" x1="0" y1="0" x2="1" y2="1">
      <stop offset="0%" stop-color="#0A1F44"/>
      <stop offset="100%" stop-color="#0E7A37"/>
    </linearGradient>
    <linearGradient id="mm-og-brain" x1="0" y1="0" x2="1" y2="1">
      <stop offset="0%" stop-color="#16A34A"/>
      <stop offset="100%" stop-color="#0E7A37"/>
    </linearGradient>
  </defs>
  <rect width="1200" height="630" fill="url(#mm-og-bg)"/>
  <g opacity="0.06" stroke="#FFFFFF" stroke-width="1" fill="none">
    <path d="M0 100 L1200 100 M0 200 L1200 200 M0 300 L1200 300 M0 400 L1200 400 M0 500 L1200 500"/>
  </g>
  <g transform="translate(140, 190) scale(2.6)">
    <path d="M 18 50 Q 8 30, 22 18 Q 35 8, 50 14 Q 65 8, 78 18 Q 92 30, 82 50 Q 92 70, 78 82 Q 65 92, 50 86 Q 35 92, 22 82 Q 8 70, 18 50 Z"
          fill="url(#mm-og-brain)"/>
    <path d="M 50 14 Q 48 50, 50 86" stroke="#0A1F44" stroke-width="2" fill="none" opacity="0.4"/>
    <path d="M 22 30 Q 32 38, 28 50 Q 32 62, 24 70" stroke="#0A1F44" stroke-width="1.5" fill="none" opacity="0.35"/>
    <path d="M 78 30 Q 68 38, 72 50 Q 68 62, 76 70" stroke="#0A1F44" stroke-width="1.5" fill="none" opacity="0.35"/>
    <text x="50" y="60" text-anchor="middle" font-family="Helvetica, Arial, sans-serif"
          font-weight="900" font-size="38" fill="#FFFFFF">₦</text>
  </g>
  <g font-family="-apple-system, BlinkMacSystemFont, 'Segoe UI', Helvetica, Arial, sans-serif">
    <text x="490" y="290" font-size="100" font-weight="800" fill="#FFFFFF">Moniemind</text>
    <text x="490" y="350" font-size="34" font-weight="400" fill="#A7F3D0">Personal finance, Nigerian-coded.</text>
    <text x="120" y="580" font-size="24" font-weight="500" fill="#FFFFFF" opacity="0.8">moniemind.com</text>
  </g>
</svg>
